<svg width="640" height="480" xmlns="http://www.w3.org/2000/svg" xmlns:xlink="http://www.w3.org/1999/xlink">
<script type="application/ecmascript" xlink:href="svg-dragdrop.js"></script>
 <!-- Created with SVG-edit - http://svg-edit.googlecode.com/ -->
 <g>
  <title>Layer 1</title>
  <path d="m140,114c1,0 2,0 3,0c2,0 3,0 5,0c2,0 5,0 7,0c2,0 5,0 7,0c2,0 5,0 7,0c3,0 5,0 8,0c2,0 4,0 7,0c2,0 4,0 7,0c2,0 4,0 6,0c2,0 4,0 6,0c2,0 4,0 7,0c2,0 5,0 7,0c3,0 4.763931,1 7,1c2.236069,0 5.038742,-1.480545 8,-1c3.121445,0.506538 6.051651,0.359268 10,1c3.121445,0.506538 7,1 11,1c3,0 7,1 11,1c4,0 10,0 16,0c5,0 11,0 15,0c5,0 10,0 14,0c4,0 8,0 12,0c2,0 5,0 7,0c1,0 3,0 5,0c1,0 3,0 5,0c2,0 3,-1 4,-1c1,0 2,0 3,0c1,0 2,0 3,0c1,0 2,0 3,0c1,0 2,0 3,0c1,0 2,0 4,0c1,0 2,0 3,0c1,0 3,0 5,0c1,0 3,0 6,0c2,0 4,0 6,0c2,0 4,0 5,0c1,0 3,0 4,0c1,0 2,0 3,0l1,0" id="svg_1" stroke-width="5" stroke="#000000" fill="none"/>
  <line id="svg_2" y2="270" x2="272" y1="143" x1="137" stroke-width="5" stroke="#000000" fill="none"/>
  <ellipse ry="67.499999" rx="64.000002" id="svg_3" cy="205.499997" cx="335.999998" stroke-width="5" stroke="#000000" fill="none"/>
 </g>
</svg>
